<mxfile host="app.diagrams.net" modified="2024-02-29T13:16:43.716Z" agent="Mozilla/5.0 (Windows NT 10.0; Win64; x64) AppleWebKit/537.36 (KHTML, like Gecko) Chrome/122.0.0.0 Safari/537.36" etag="FgDJATbZ7yKFmF74k3qJ" version="23.1.8" type="github">
  <diagram name="Halaman-1" id="z07J5baDnEYeyHc21Ukh">
    <mxGraphModel dx="880" dy="426" grid="1" gridSize="10" guides="1" tooltips="1" connect="1" arrows="1" fold="1" page="1" pageScale="1" pageWidth="827" pageHeight="1169" math="0" shadow="0">
      <root>
        <mxCell id="0" />
        <mxCell id="1" parent="0" />
        <mxCell id="0-bJSz4LQNOg2kQ7naPu-22" style="edgeStyle=orthogonalEdgeStyle;rounded=0;orthogonalLoop=1;jettySize=auto;html=1;entryX=0;entryY=0.5;entryDx=0;entryDy=0;" edge="1" parent="1">
          <mxGeometry relative="1" as="geometry">
            <mxPoint x="140" y="80" as="sourcePoint" />
            <mxPoint x="193" y="80" as="targetPoint" />
          </mxGeometry>
        </mxCell>
        <mxCell id="0-bJSz4LQNOg2kQ7naPu-23" style="edgeStyle=orthogonalEdgeStyle;rounded=0;orthogonalLoop=1;jettySize=auto;html=1;" edge="1" parent="1" source="0-bJSz4LQNOg2kQ7naPu-24">
          <mxGeometry relative="1" as="geometry">
            <mxPoint x="252.4949999999999" y="260" as="targetPoint" />
          </mxGeometry>
        </mxCell>
        <mxCell id="0-bJSz4LQNOg2kQ7naPu-24" value="Periksa semua&lt;br&gt;perangkat keras" style="shape=parallelogram;perimeter=parallelogramPerimeter;whiteSpace=wrap;html=1;fixedSize=1;fillColor=#f0a30a;fontColor=#000000;strokeColor=#BD7000;" vertex="1" parent="1">
          <mxGeometry x="180" y="150" width="144.99" height="80" as="geometry" />
        </mxCell>
        <mxCell id="0-bJSz4LQNOg2kQ7naPu-25" style="edgeStyle=orthogonalEdgeStyle;rounded=0;orthogonalLoop=1;jettySize=auto;html=1;" edge="1" parent="1" source="0-bJSz4LQNOg2kQ7naPu-27">
          <mxGeometry relative="1" as="geometry">
            <mxPoint x="252.49500000000012" y="400" as="targetPoint" />
          </mxGeometry>
        </mxCell>
        <mxCell id="0-bJSz4LQNOg2kQ7naPu-26" style="edgeStyle=orthogonalEdgeStyle;rounded=0;orthogonalLoop=1;jettySize=auto;html=1;exitX=1;exitY=0.5;exitDx=0;exitDy=0;" edge="1" parent="1" source="0-bJSz4LQNOg2kQ7naPu-27" target="0-bJSz4LQNOg2kQ7naPu-41">
          <mxGeometry relative="1" as="geometry">
            <mxPoint x="410" y="315" as="targetPoint" />
          </mxGeometry>
        </mxCell>
        <mxCell id="0-bJSz4LQNOg2kQ7naPu-27" value="Cari perangkat&lt;br&gt;Boot" style="rhombus;whiteSpace=wrap;html=1;fillColor=#f0a30a;fontColor=#000000;strokeColor=#BD7000;" vertex="1" parent="1">
          <mxGeometry x="198.74" y="260" width="107.51" height="110" as="geometry" />
        </mxCell>
        <mxCell id="0-bJSz4LQNOg2kQ7naPu-28" value="Tidak" style="text;strokeColor=none;align=center;fillColor=none;html=1;verticalAlign=middle;whiteSpace=wrap;rounded=0;" vertex="1" parent="1">
          <mxGeometry x="290" y="280" width="60" height="30" as="geometry" />
        </mxCell>
        <mxCell id="0-bJSz4LQNOg2kQ7naPu-29" value="Ya" style="text;strokeColor=none;align=center;fillColor=none;html=1;verticalAlign=middle;whiteSpace=wrap;rounded=0;" vertex="1" parent="1">
          <mxGeometry x="250" y="360" width="60" height="30" as="geometry" />
        </mxCell>
        <mxCell id="0-bJSz4LQNOg2kQ7naPu-30" style="edgeStyle=orthogonalEdgeStyle;rounded=0;orthogonalLoop=1;jettySize=auto;html=1;" edge="1" parent="1" source="0-bJSz4LQNOg2kQ7naPu-31">
          <mxGeometry relative="1" as="geometry">
            <mxPoint x="255.01499999999987" y="510" as="targetPoint" />
          </mxGeometry>
        </mxCell>
        <mxCell id="0-bJSz4LQNOg2kQ7naPu-31" value="Inisialisasi perangkat&amp;nbsp;&lt;br&gt;keras dan perangkat&lt;br&gt;lunak" style="rounded=0;whiteSpace=wrap;html=1;fillColor=#f0a30a;fontColor=#000000;strokeColor=#BD7000;" vertex="1" parent="1">
          <mxGeometry x="182.52" y="400" width="144.99" height="80" as="geometry" />
        </mxCell>
        <mxCell id="0-bJSz4LQNOg2kQ7naPu-32" style="edgeStyle=orthogonalEdgeStyle;rounded=0;orthogonalLoop=1;jettySize=auto;html=1;" edge="1" parent="1" source="0-bJSz4LQNOg2kQ7naPu-34">
          <mxGeometry relative="1" as="geometry">
            <mxPoint x="440" y="565" as="targetPoint" />
          </mxGeometry>
        </mxCell>
        <mxCell id="0-bJSz4LQNOg2kQ7naPu-33" style="edgeStyle=orthogonalEdgeStyle;rounded=0;orthogonalLoop=1;jettySize=auto;html=1;" edge="1" parent="1" source="0-bJSz4LQNOg2kQ7naPu-34">
          <mxGeometry relative="1" as="geometry">
            <mxPoint x="255.62999999999988" y="650" as="targetPoint" />
          </mxGeometry>
        </mxCell>
        <mxCell id="0-bJSz4LQNOg2kQ7naPu-34" value="Tampilkan&lt;br&gt;prompt&lt;br&gt;login" style="rhombus;whiteSpace=wrap;html=1;fillColor=#f0a30a;fontColor=#000000;strokeColor=#BD7000;" vertex="1" parent="1">
          <mxGeometry x="201.26" y="510" width="108.74" height="110" as="geometry" />
        </mxCell>
        <mxCell id="0-bJSz4LQNOg2kQ7naPu-35" value="Tidak" style="text;strokeColor=none;align=center;fillColor=none;html=1;verticalAlign=middle;whiteSpace=wrap;rounded=0;" vertex="1" parent="1">
          <mxGeometry x="290" y="530" width="60" height="30" as="geometry" />
        </mxCell>
        <mxCell id="0-bJSz4LQNOg2kQ7naPu-36" value="Ya" style="text;strokeColor=none;align=center;fillColor=none;html=1;verticalAlign=middle;whiteSpace=wrap;rounded=0;" vertex="1" parent="1">
          <mxGeometry x="250" y="620" width="60" height="30" as="geometry" />
        </mxCell>
        <mxCell id="0-bJSz4LQNOg2kQ7naPu-37" style="edgeStyle=orthogonalEdgeStyle;rounded=0;orthogonalLoop=1;jettySize=auto;html=1;" edge="1" parent="1" source="0-bJSz4LQNOg2kQ7naPu-38" target="0-bJSz4LQNOg2kQ7naPu-40">
          <mxGeometry relative="1" as="geometry">
            <mxPoint x="255.6300000000001" y="750" as="targetPoint" />
          </mxGeometry>
        </mxCell>
        <mxCell id="0-bJSz4LQNOg2kQ7naPu-38" value="Tampilkan Desktop" style="shape=parallelogram;perimeter=parallelogramPerimeter;whiteSpace=wrap;html=1;fixedSize=1;fillColor=#f0a30a;fontColor=#000000;strokeColor=#BD7000;" vertex="1" parent="1">
          <mxGeometry x="185.63" y="650" width="140" height="70" as="geometry" />
        </mxCell>
        <mxCell id="0-bJSz4LQNOg2kQ7naPu-39" style="edgeStyle=orthogonalEdgeStyle;rounded=0;orthogonalLoop=1;jettySize=auto;html=1;" edge="1" parent="1" source="0-bJSz4LQNOg2kQ7naPu-40">
          <mxGeometry relative="1" as="geometry">
            <mxPoint x="380" y="860" as="targetPoint" />
            <Array as="points">
              <mxPoint x="256" y="860" />
            </Array>
          </mxGeometry>
        </mxCell>
        <mxCell id="0-bJSz4LQNOg2kQ7naPu-40" value="Pengguna dapat menjalankan program, membuka file, dan mengelola komputer." style="rounded=0;whiteSpace=wrap;html=1;fillColor=#f0a30a;fontColor=#000000;strokeColor=#BD7000;" vertex="1" parent="1">
          <mxGeometry x="193.45" y="760" width="124.37" height="80" as="geometry" />
        </mxCell>
        <mxCell id="0-bJSz4LQNOg2kQ7naPu-41" value="Selesai" style="ellipse;whiteSpace=wrap;html=1;fillColor=#f0a30a;fontColor=#000000;strokeColor=#BD7000;" vertex="1" parent="1">
          <mxGeometry x="380" y="820" width="120" height="80" as="geometry" />
        </mxCell>
        <mxCell id="0-bJSz4LQNOg2kQ7naPu-42" style="edgeStyle=orthogonalEdgeStyle;rounded=0;orthogonalLoop=1;jettySize=auto;html=1;entryX=0.545;entryY=-0.05;entryDx=0;entryDy=0;entryPerimeter=0;" edge="1" parent="1" target="0-bJSz4LQNOg2kQ7naPu-24">
          <mxGeometry relative="1" as="geometry">
            <mxPoint x="259" y="115" as="sourcePoint" />
          </mxGeometry>
        </mxCell>
        <mxCell id="0-bJSz4LQNOg2kQ7naPu-43" value="&lt;h2 style=&quot;border-color: var(--border-color);&quot;&gt;&lt;span style=&quot;border-color: var(--border-color); font-weight: normal;&quot;&gt;POWER ON&lt;/span&gt;&lt;/h2&gt;&lt;h3&gt;&lt;div style=&quot;border-color: var(--border-color); font-size: 12px;&quot;&gt;&lt;span style=&quot;border-color: var(--border-color); font-weight: normal;&quot;&gt;POST (Power On Self Test)&lt;/span&gt;&lt;/div&gt;&lt;/h3&gt;" style="rounded=0;whiteSpace=wrap;html=1;fillColor=#f0a30a;fontColor=#000000;strokeColor=#BD7000;" vertex="1" parent="1">
          <mxGeometry x="198.73999999999998" y="40" width="130" height="70" as="geometry" />
        </mxCell>
        <mxCell id="0-bJSz4LQNOg2kQ7naPu-44" value="&lt;h2&gt;&lt;span style=&quot;font-weight: normal;&quot;&gt;Mulai&lt;/span&gt;&lt;/h2&gt;" style="ellipse;whiteSpace=wrap;html=1;fillColor=#f0a30a;fontColor=#000000;strokeColor=#BD7000;" vertex="1" parent="1">
          <mxGeometry x="-1.4210854715202004e-14" y="30" width="140" height="90" as="geometry" />
        </mxCell>
      </root>
    </mxGraphModel>
  </diagram>
</mxfile>
